<svg version="1.1" xmlns="http://www.w3.org/2000/svg" viewBox="0 0 52.86537691384501 48.521306687480944" width="52.86537691384501" height="48.521306687480944" filter="invert(93%) hue-rotate(180deg)">
  <!-- svg-source:excalidraw -->
  
  <defs>
    <style class="style-fonts">
      
    </style>
    
  </defs>
  <g stroke-linecap="round"><g transform="translate(12.925551815775407 37.84801638156438) rotate(0 13.519907633800699 -13.913690859075672)"><path d="M0 0 C1.99 -1.29, 7.02 -5.93, 11.94 -7.74 C16.87 -9.56, 27.54 -8.23, 29.53 -10.89 C31.52 -13.56, 25.64 -22.71, 23.89 -23.76 C22.14 -24.81, 21.59 -16.52, 19.03 -17.2 C16.47 -17.87, 10.68 -28.37, 8.53 -27.83 C6.39 -27.28, 7.88 -15.77, 6.17 -13.91 C4.46 -12.05, -0.26 -18.97, -1.71 -16.67 C-3.15 -14.37, -3.17 -2.56, -2.49 -0.13 C-1.82 2.3, 1.14 -1.49, 2.36 -2.1 C3.59 -2.71, 4.44 -3.52, 4.86 -3.81 M0 0 C1.99 -1.29, 7.02 -5.93, 11.94 -7.74 C16.87 -9.56, 27.54 -8.23, 29.53 -10.89 C31.52 -13.56, 25.64 -22.71, 23.89 -23.76 C22.14 -24.81, 21.59 -16.52, 19.03 -17.2 C16.47 -17.87, 10.68 -28.37, 8.53 -27.83 C6.39 -27.28, 7.88 -15.77, 6.17 -13.91 C4.46 -12.05, -0.26 -18.97, -1.71 -16.67 C-3.15 -14.37, -3.17 -2.56, -2.49 -0.13 C-1.82 2.3, 1.14 -1.49, 2.36 -2.1 C3.59 -2.71, 4.44 -3.52, 4.86 -3.81" stroke="#1e1e1e" stroke-width="1" fill="none"></path></g></g><mask></mask></svg>